<svg width="697" height="1104" viewBox="0 0 697 1104" fill="none" xmlns="http://www.w3.org/2000/svg">
<path d="M348.468 1103.76C566.874 1103.76 696.936 948.007 696.936 755.462C696.936 562.918 435.585 266.129 348.468 0C260.124 266.129 0 562.918 0 755.462C0 948.007 130.062 1103.76 348.468 1103.76ZM75.3893 687C71.7083 704.17 75.3893 690.463 75.3893 706.406C75.3893 874.423 184.592 1011.78 368.642 1021.59C342.875 1028.95 315.675 1049.5 285 1049.5C132.852 1049.5 40.827 940.35 40.827 805.446C42.054 766.201 52.0763 736.056 75.3893 687Z" fill="#15D1FC"/>
</svg>
