<svg width="176" height="176" viewBox="0 0 176 176" fill="none" xmlns="http://www.w3.org/2000/svg">
<path d="M174.793 67.1276C174.243 66.3076 163.793 49.3776 138.933 49.3776C136.265 49.3638 133.603 49.6388 130.993 50.1976L130.723 49.6476L130.173 48.8276C136.192 41.6279 139.487 32.5415 139.483 23.1576V9.49763C139.541 7.8802 139.161 6.27726 138.383 4.85764C137.809 3.81406 137.035 2.89412 136.104 2.15057C135.173 1.40702 134.105 0.854501 132.961 0.524688C131.816 0.194876 130.617 0.0942623 129.434 0.228618C128.25 0.362974 127.105 0.729653 126.063 1.30763C124.999 1.87271 124.062 2.64944 123.308 3.59009C122.555 4.53075 122.002 5.61548 121.683 6.77763L120.313 11.9576C118.716 17.6212 115.701 22.7839 111.553 26.9576L108.823 29.6876C102.169 26.4547 94.8669 24.7749 87.4684 24.7749C80.07 24.7749 72.7681 26.4547 66.1134 29.6876L63.3734 26.9776C59.2289 22.8012 56.2145 17.6395 54.6134 11.9776L53.2434 6.77763C52.8602 5.18447 52.0436 3.72841 50.8841 2.57061C49.7245 1.41282 48.2672 0.598446 46.6734 0.217632C45.3541 -0.0694269 43.9887 -0.0725454 42.6681 0.208484C41.3474 0.489513 40.1016 1.04826 39.0134 1.84763C37.9355 2.75912 37.0614 3.88728 36.448 5.15876C35.8347 6.43025 35.4958 7.81658 35.4534 9.22763V23.1576C35.4497 32.5415 38.7452 41.6279 44.7634 48.8276L44.4834 49.3776L44.2134 49.9176C41.6011 49.3778 38.941 49.1031 36.2734 49.0976C11.3634 49.0976 0.953448 66.0376 0.413448 66.8576C0.143864 67.2618 0 67.7368 0 68.2226C0 68.7085 0.143864 69.1834 0.413448 69.5876C0.953448 70.4076 11.4134 87.3376 36.2734 87.3376C37.3634 87.3376 38.7334 87.0676 39.8334 87.0676L48.8334 136.228C46.386 138.324 44.4144 140.919 43.0503 143.838C41.6862 146.758 40.9611 149.935 40.9234 153.158C40.9472 158.954 43.2637 164.505 47.3671 168.599C51.4704 172.693 57.0271 174.997 62.8234 175.008H73.8234C78.8246 175.046 83.6766 173.306 87.5134 170.098C91.4144 173.192 96.225 174.917 101.203 175.008H112.203C115.37 174.99 118.498 174.299 121.377 172.98C124.256 171.661 126.822 169.745 128.903 167.358C130.79 165.18 132.224 162.648 133.122 159.911C134.02 157.173 134.365 154.284 134.136 151.412C133.907 148.54 133.109 145.743 131.788 143.182C130.468 140.621 128.651 138.349 126.443 136.498L135.443 87.3376C136.615 87.5721 137.81 87.6628 139.003 87.6076C163.913 87.6076 174.313 70.6776 174.863 69.8576C175.121 68.962 175.096 68.0089 174.793 67.1276Z" fill="black"/>
</svg>
