<svg id="Layer_1" data-name="Layer 1" xmlns="http://www.w3.org/2000/svg" viewBox="0 0 175 175"><title>beef</title><path d="M128.78,4.35c-.55-.82-11-17.75-35.86-17.75a37,37,0,0,0-7.94.82l-.27-.55-.55-.82a40,40,0,0,0,9.31-25.67V-53.28a9,9,0,0,0-1.1-4.64,9.05,9.05,0,0,0-12.32-3.55A8.84,8.84,0,0,0,75.67-56L74.3-50.82a34.6,34.6,0,0,1-8.76,15l-2.73,2.73a48.87,48.87,0,0,0-42.71,0L17.36-35.8a34.7,34.7,0,0,1-8.76-15L7.23-56A8.88,8.88,0,0,0,.66-62.56,9.52,9.52,0,0,0-7-60.93a10.06,10.06,0,0,0-3.56,7.38v13.93A40,40,0,0,0-1.25-13.95l-.28.55-.27.54a39.64,39.64,0,0,0-7.94-.82c-24.91,0-35.32,16.94-35.86,17.76a2.46,2.46,0,0,0,0,2.73c.54.82,11,17.75,35.86,17.75,1.09,0,2.46-.27,3.56-.27l9,49.16A22.64,22.64,0,0,0-5.09,90.38a21.94,21.94,0,0,0,21.9,21.85h11a21.09,21.09,0,0,0,13.69-4.91,22.69,22.69,0,0,0,13.69,4.91h11a22.32,22.32,0,0,0,16.7-7.65,21.72,21.72,0,0,0-2.46-30.86l9-49.16a14.68,14.68,0,0,0,3.56.27c24.91,0,35.31-16.93,35.86-17.75A4.54,4.54,0,0,0,128.78,4.35Z" transform="translate(46.01 62.77)"/></svg>