<?xml version="1.0" encoding="utf-8"?>
<!-- Generator: Adobe Illustrator 22.0.1, SVG Export Plug-In . SVG Version: 6.00 Build 0)  -->
<svg version="1.1" id="Layer_1" xmlns="http://www.w3.org/2000/svg" xmlns:xlink="http://www.w3.org/1999/xlink" x="0px" y="0px"
	 viewBox="0 0 64 80" style="enable-background:new 0 0 64 80;" xml:space="preserve">
<title>Artboard 28</title>
<path d="M63.9,24.5c-0.2-0.3-4-6.5-13.1-6.5c-1,0-2,0.1-2.9,0.3l-0.1-0.2l-0.2-0.3c2.2-2.6,3.4-6,3.4-9.4v-5c0-0.6-0.1-1.2-0.4-1.7
	c-0.9-1.6-2.9-2.2-4.5-1.3c-0.8,0.4-1.3,1.1-1.6,2L44,4.3c-0.6,2.1-1.7,4-3.2,5.5l-1,1c-4.9-2.4-10.7-2.4-15.6,0l-1-1
	c-1.5-1.5-2.6-3.4-3.2-5.5l-0.5-1.9c-0.3-1.2-1.2-2.1-2.4-2.4c-1-0.2-2,0-2.8,0.6C13.5,1.3,13,2.3,13,3.3v5.1c0,3.4,1.2,6.8,3.4,9.4
	L16.3,18l-0.1,0.2c-1-0.2-1.9-0.3-2.9-0.3c-9.1,0-12.9,6.2-13.1,6.5c-0.2,0.3-0.2,0.7,0,1s4,6.5,13.1,6.5c0.4,0,0.9-0.1,1.3-0.1
	l3.3,18C16.1,51.4,15,53.6,15,56c0,4.4,3.6,8,8,8h4c1.8,0,3.6-0.6,5-1.8c1.4,1.1,3.2,1.8,5,1.8h4c2.3,0,4.5-1,6.1-2.8
	c2.9-3.4,2.5-8.4-0.9-11.3l3.3-18c0.4,0.1,0.8,0.1,1.3,0.1c9.1,0,12.9-6.2,13.1-6.5C64,25.2,64,24.8,63.9,24.5z"/>
</svg>
