<?xml version="1.0" encoding="utf-8"?>
<!-- Generator: Adobe Illustrator 22.0.1, SVG Export Plug-In . SVG Version: 6.00 Build 0)  -->
<svg version="1.1" id="Layer_1" xmlns="http://www.w3.org/2000/svg" xmlns:xlink="http://www.w3.org/1999/xlink" x="0px" y="0px"
	 viewBox="0 0 64 80" style="enable-background:new 0 0 64 80;" xml:space="preserve">
<title>Artboard 28</title>
<path d="M63.9,24.5c-0.2-0.3-4-6.5-13.1-6.5c-1,0-2,0.1-2.9,0.3l-0.1-0.2l-0.2-0.3c2.2-2.6,3.4-6,3.4-9.4v-5c0-0.6-0.1-1.2-0.4-1.7
	c-0.9-1.6-2.9-2.2-4.5-1.3c-0.8,0.4-1.3,1.1-1.6,2L44,4.3c-0.6,2.1-1.7,4-3.2,5.5l-1,1c-4.9-2.4-10.7-2.4-15.6,0l-1-1
	c-1.5-1.5-2.6-3.4-3.2-5.5l-0.5-1.9c-0.3-1.2-1.2-2.1-2.4-2.4c-1-0.2-2,0-2.8,0.6C13.5,1.3,13,2.3,13,3.3v5.1c0,3.4,1.2,6.8,3.4,9.4
	L16.3,18l-0.1,0.2c-1-0.2-1.9-0.3-2.9-0.3c-9.1,0-12.9,6.2-13.1,6.5c-0.2,0.3-0.2,0.7,0,1c0.2,0.3,4,6.5,13.1,6.5
	c0.4,0,0.9-0.1,1.3-0.1l3.3,18C16.1,51.4,15,53.6,15,56c0,4.4,3.6,8,8,8h4c1.8,0,3.6-0.6,5-1.8c1.4,1.1,3.2,1.8,5,1.8h4
	c2.3,0,4.5-1,6.1-2.8c2.9-3.4,2.5-8.4-0.9-11.3l3.3-18c0.4,0.1,0.8,0.1,1.3,0.1c9.1,0,12.9-6.2,13.1-6.5C64,25.2,64,24.8,63.9,24.5z
	 M47,56c0,3.3-2.7,6-6,6h-4c-1.6,0-3.2-0.6-4.3-1.8l0,0c-0.4-0.4-1-0.4-1.4,0C30.2,61.4,28.6,62,27,62h-4c-3.3,0-6-2.7-6-6
	s2.7-6,6-6h4c1.6,0,3.2,0.6,4.3,1.8l0,0c0.4,0.4,1,0.4,1.4,0c1.1-1.2,2.7-1.8,4.3-1.8h4C44.3,50,47,52.7,47,56z M50.8,30
	c-0.2,0-0.3,0-0.5,0c0,0,0,0,0,0c-0.8,0-1.6,0.1-2.5,0.1c0,0,0,0.1,0,0.1l-3.5,18.5c-1-0.5-2.2-0.7-3.3-0.7h-4c-1.8,0-3.6,0.6-5,1.8
	c-1.4-1.1-3.2-1.8-5-1.8h-4c-1.2,0-2.3,0.3-3.3,0.8l-3.5-18.5c0-0.1,0-0.3-0.1-0.4C15,30,13.6,30.2,12.4,30c-4-0.1-7.7-1.9-10.2-5
	c2.7-3.3,6.7-5.2,11-5c0.6,0,1.3,0.1,1.9,0.1c0,0,0,0,0,0c0,0,0,0,0,0c0,0,0.1,0,0.1,0c0,0,0,0,0,0c0,0,0,0,0.1,0c0,0,0,0,0,0
	c0,0,0,0,0,0c0.6,0,1.3,0.1,1.9,0.4c0.2-0.5,0.4-1,0.7-1.5c0.2-0.3,0.3-0.6,0.5-0.9c0.3-0.4,0.2-0.9-0.1-1.2
	c-2.2-2.3-3.4-5.4-3.4-8.7V3.2c0-0.4,0.2-0.8,0.5-1C15.8,2,16.2,1.9,16.6,2c0.5,0.1,0.8,0.5,0.9,1l0.5,1.9c0.7,2.4,2,4.6,3.7,6.3
	l1.5,1.5c0.3,0.3,0.8,0.4,1.2,0.2c4.7-2.5,10.4-2.5,15.1,0c0.4,0.2,0.9,0.1,1.2-0.2l1.5-1.5c1.8-1.8,3-3.9,3.7-6.3l0.6-1.9
	c0.1-0.3,0.3-0.6,0.6-0.8c0.3-0.2,0.7-0.2,1-0.1C48.7,2.2,49,2.8,49,3.3v5c0,3.2-1.2,6.3-3.4,8.6c-0.3,0.3-0.4,0.9-0.1,1.2
	c0.2,0.3,0.4,0.6,0.5,0.8c0.2,0.4,0.4,0.8,0.6,1.1c0.7-0.1,1.3-0.1,2-0.1c0.1,0,0.3,0,0.4,0c0,0,0,0,0,0c0,0,0,0,0,0
	c0.1,0,0.1,0,0.2,0c0,0,0,0,0,0c0.5-0.1,1-0.1,1.5-0.1c4.3-0.2,8.3,1.7,11,5C59.1,28.3,55,30.2,50.8,30z"/>
</svg>
