<svg id="Layer_1" data-name="Layer 1" xmlns="http://www.w3.org/2000/svg" viewBox="0 0 125 125"><title>beef</title><path d="M144.48,69.78c-.39-.59-7.85-12.66-25.6-12.66a26.3,26.3,0,0,0-5.67.58l-.2-.39-.39-.59a28.49,28.49,0,0,0,6.65-18.31V28.67a6.36,6.36,0,0,0-.79-3.31,6.47,6.47,0,0,0-8.78-2.54h0a6.29,6.29,0,0,0-3.12,3.9l-1,3.69a24.56,24.56,0,0,1-6.26,10.7l-1.95,2a35,35,0,0,0-30.5,0l-2-1.93a24.72,24.72,0,0,1-6.26-10.7l-1-3.71A6.33,6.33,0,0,0,53,22.05a6.79,6.79,0,0,0-5.47,1.16A7.17,7.17,0,0,0,45,28.48v9.93a28.49,28.49,0,0,0,6.65,18.31l-.2.4-.2.38a28.34,28.34,0,0,0-5.67-.58C27.78,56.92,20.34,69,20,69.59a1.72,1.72,0,0,0,0,1.94c.38.59,7.85,12.67,25.6,12.67.78,0,1.76-.2,2.55-.2l1.52,21.37c-7.5,3-18.67,14.45-13.82,30.28,5.25,11.64,20.1,11.07,28.71,11.09h7.86a15.12,15.12,0,0,0,9.78-3.51,16.22,16.22,0,0,0,9.77,3.51h7.86c4.57,0,10.2,1.13,20.06-2.5,13-7.14,15.48-30.21-3.77-38.87l.3-21.17a10.88,10.88,0,0,0,2.55.19c17.78,0,25.21-12.08,25.6-12.66A3.17,3.17,0,0,0,144.48,69.78Z" transform="translate(-19.66 -21.89)"/></svg>