<?xml version="1.0" encoding="utf-8"?>
<!-- Generator: Adobe Illustrator 22.0.1, SVG Export Plug-In . SVG Version: 6.00 Build 0)  -->
<svg version="1.1" id="Layer_1" xmlns="http://www.w3.org/2000/svg" xmlns:xlink="http://www.w3.org/1999/xlink" x="0px" y="0px"
	 viewBox="0 0 125 125" style="enable-background:new 0 0 125 125;" xml:space="preserve">
<title>fish</title>
<path d="M144.2,44c-4,9.6-8.7,12.1-13,22.1c-3.2-7-42.6-97.6-106.7,3.2c4.2,4.4,8.4,8.8,12.4,13.4c1.6,1.9,2.8,4.6,4.2,6.9
	c-1.8,1.5-3.5,3.5-5.4,4.4c-8.5,3.8-8.5,3.7-3.4,14.6c14.1,48.9,87.6,56.8,101.5-9.6c5.3,11.1,6.6,8.7,10.3,16.7
	c2.1,4.7,2.7,4.8,5.3,0.7V43.1C147.4,39.7,145.8,40,144.2,44z"/>
</svg>
