<svg width="175" height="175" viewBox="0 0 175 175" fill="none" xmlns="http://www.w3.org/2000/svg">
<path d="M175 54V121C171.32 124.72 170.53 124.67 167.58 120.33C161.83 111.86 156.11 103.33 150.07 94.44L147 99.21C134.59 118.42 120.37 135.85 100 147.33C98.83 147.98 97.88 150.19 98 151.63C98.24 156.95 99.18 162.23 99.39 167.54C99.49 170.01 98.53 172.54 98.05 175H94C93.6223 174.687 93.1924 174.443 92.73 174.28C78.33 172.13 67.05 164.96 58.54 153.28C58.0558 152.639 57.4008 152.147 56.65 151.86C36.76 144.8 23.15 130.2 11.08 113.86C3.79 103.96 3.9 104.01 15.77 100.56C18.45 99.79 20.82 97.92 23.32 96.56C21.37 94.45 19.67 91.98 17.41 90.28C11.74 86 5.82 82 0 78V76C7.18 67.15 14.14 58.12 21.59 49.5C32.53 36.86 45.21 26.65 62 22.64C63.1365 22.358 64.174 21.77 65 20.94C74.13 11.08 84.88 3.67 98 0H102C102.67 1.94 103.84 3.86 103.9 5.81C104.14 12.81 103.85 19.81 104.1 26.81C104.16 28.5 105.02 30.81 106.3 31.71C118.9 40.21 128.9 51.25 137.77 63.4C141.95 69.11 145.77 75.05 150.17 81.4C156.17 72.27 162 63.63 167.6 54.85C169.91 51.17 172.17 50.91 175 54Z" fill="black"/>
</svg>
