<svg id="Layer_1" data-name="Layer 1" xmlns="http://www.w3.org/2000/svg" viewBox="0 0 125 125"><title>fish</title><path d="M144.15,44.05c-4,9.61-8.74,12.11-13,22.11-3.16-7-42.63-97.62-106.68,3.17,4.16,4.38,8.39,8.76,12.44,13.45,1.61,1.86,2.82,4.57,4.22,6.88-1.79,1.48-3.48,3.53-5.4,4.38-8.47,3.77-8.55,3.72-3.35,14.57,14.09,48.91,87.58,56.81,101.48-9.59,5.29,11.14,6.62,8.69,10.31,16.67,2.11,4.75,2.67,4.8,5.3.73V43.11C147.44,39.73,145.8,40,144.15,44.05Z" transform="translate(-24.44 -22.06)"/></svg>