<svg id="Layer_1" data-name="Layer 1" xmlns="http://www.w3.org/2000/svg" viewBox="0 0 125 125"><title>fish</title><path d="M145,49.67c-4,9.07-9.26,16.1-13.55,25.53-3.16-6.57-40.71-93.33-90.74-31.07C35.37,53.05,30.4,62.37,25.27,71.49v2c4.16,4.13,8.39,8.27,12.44,12.68,1.61,1.77,2.82,4.32,4.22,6.5-1.79,1.4-3.48,3.33-5.4,4.13-8.47,3.56-8.55,3.51-3.35,13.74,23.53,54,84.66,47,99.57-17.12,9.91,17.6,8.11,15.06,12.22,23.81,2.11,4.48,2.67,4.53,5.3.69V48.78C148.27,45.59,146.63,45.87,145,49.67Z" transform="translate(-25.27 -21.76)"/></svg>