<?xml version="1.0" encoding="utf-8"?>
<!-- Generator: Adobe Illustrator 22.0.1, SVG Export Plug-In . SVG Version: 6.00 Build 0)  -->
<svg version="1.1" id="Layer_1" xmlns="http://www.w3.org/2000/svg" xmlns:xlink="http://www.w3.org/1999/xlink" x="0px" y="0px"
	 viewBox="0 0 32 40" style="enable-background:new 0 0 32 40;" xml:space="preserve">
<title>Artboard 19</title>
<g>
	<path d="M31.6,1.9c0-0.5-0.4-0.9-0.9-0.9c-6.9-0.5-12.4,1.4-15.9,5.6c-2.8,3.3-4.3,8-4.4,13.5c-2.5-0.1-5-0.4-7.5-1
		c-0.5-0.1-1.1,0.2-1.2,0.8c-0.1,0.3,0,0.7,0.3,0.9l9.9,9.9c0.2,0.2,0.4,0.3,0.7,0.3c0.2,0,0.3,0,0.5-0.1c0.4-0.2,0.6-0.7,0.5-1.1
		c-0.6-2.5-1-5-1.1-7.6c5.8-0.1,10.7-1.7,14.1-4.7C30.5,13.8,32.3,8.6,31.6,1.9z M2.9,20.1c1.6,0.2,6.9,0.8,8.5,0.8
		c0.1,1.6,0.9,7.5,1.2,9.1L2.9,20.1z M28.7,1.7l2.4,0.1c0.3,3-0.4,7.3-1.6,10c-3.3-1.4-7.8-4.6-9.2-7.8C21.1,3.1,26.2,1.7,28.7,1.7z
		 M11.4,20.9c0.1-5,1.4-10.8,4-13.7c0.8-1,3-2.4,4.1-3c1.6,3.6,5.7,7.2,9.3,8.8c-0.6,0.9-2.2,3-3,3.8C22.8,19.4,16.7,20.8,11.4,20.9
		z"/>
</g>
<circle cx="25.9" cy="4.8" r="0.9"/>
</svg>
