<svg id="Layer_1" data-name="Layer 1" xmlns="http://www.w3.org/2000/svg" viewBox="0 0 175 175"><title>fish</title><path d="M175,54v67c-3.68,3.72-4.47,3.67-7.42-.67-5.75-8.47-11.47-17-17.51-25.89L147,99.21c-12.41,19.21-26.63,36.64-47,48.12-1.17.65-2.12,2.86-2,4.3.24,5.32,1.18,10.6,1.39,15.91.1,2.47-.86,5-1.34,7.46H94a4.17,4.17,0,0,0-1.27-.72c-14.4-2.15-25.68-9.32-34.19-21a4.28,4.28,0,0,0-1.89-1.42c-19.89-7.06-33.5-21.66-45.57-38-7.29-9.9-7.18-9.85,4.69-13.3,2.68-.77,5.05-2.64,7.55-4-1.95-2.11-3.65-4.58-5.91-6.28C11.74,86,5.82,82,0,78V76c7.18-8.85,14.14-17.88,21.59-26.5C32.53,36.86,45.21,26.65,62,22.64a6.41,6.41,0,0,0,3-1.7C74.13,11.08,84.88,3.67,98,0h4c.67,1.94,1.84,3.86,1.9,5.81.24,7-.05,14,.2,21,.06,1.69.92,4,2.2,4.9,12.6,8.5,22.6,19.54,31.47,31.69,4.18,5.71,8,11.65,12.4,18,6-9.13,11.83-17.77,17.43-26.55C169.91,51.17,172.17,50.91,175,54Z" transform="translate(0 0)"/></svg>