<svg id="Layer_1" data-name="Layer 1" xmlns="http://www.w3.org/2000/svg" viewBox="0 0 125 125"><title>fish</title><path d="M144.71,54.17c-4,8.95-9.26,15.89-13.55,25.2C128,72.89,90.45-12.74,40.42,48.71c-5.32,8.8-10.29,18-15.42,27v2c4.16,4.08,8.39,8.16,12.44,12.52,1.61,1.74,2.82,4.26,4.22,6.41-1.79,1.38-3.48,3.29-5.4,4.08-8.47,3.51-8.55,3.46-3.35,13.56,12.44,59.85,102.2,43,98.12-17.46,3.28,11.4,9.56,15.42,13.67,24.06,2.11,4.42,2.67,4.47,5.3.68V53.3C148,50.15,146.36,50.42,144.71,54.17Z" transform="translate(-25 -26.63)"/></svg>