<svg width="176" height="175" viewBox="0 0 176 175" fill="none" xmlns="http://www.w3.org/2000/svg">
<path d="M160.911 59.88C162.592 59.1374 164.078 58.0146 165.251 56.6C166.334 55.2628 167.102 53.6999 167.5 52.0263C167.898 50.3528 167.916 48.6112 167.551 46.93L167.251 45.5C163.561 28.12 151.071 17.9 143.951 13.36C130.071 4.5 111.421 0 88.7414 0C64.8814 0 47.0714 4.23 32.7414 13.36C25.6214 17.87 13.2214 28.06 9.44137 45.5L9.14137 46.93C8.77709 48.6112 8.79461 50.3528 9.19267 52.0263C9.59072 53.6999 10.3592 55.2628 11.4414 56.6C11.7948 57.0118 12.1721 57.4025 12.5714 57.77L12.4214 57.94L0.621372 74.45C0.309786 74.8767 0.107646 75.3734 0.0326773 75.8964C-0.0422917 76.4195 0.0121992 76.9529 0.191372 77.45C0.343009 77.9626 0.619859 78.4293 0.996951 78.8082C1.37404 79.187 1.83951 79.466 2.35137 79.62L8.86137 81.53V84.53C8.8608 85.118 9.01978 85.6952 9.32137 86.2C10.8847 93.1482 15.1435 99.1911 21.1614 103C13.8314 106.23 8.86137 112.38 8.86137 119.41C8.93512 122.017 9.60423 124.573 10.8175 126.881C12.0308 129.19 13.7561 131.191 15.8614 132.73C13.3908 133.763 11.3606 135.63 10.1237 138.005C8.88679 140.38 8.52151 143.113 9.09137 145.73L9.39137 147.16C11.1168 155.028 15.4714 162.072 21.7375 167.133C28.0035 172.194 35.8069 174.969 43.8614 175H132.781C140.847 174.96 148.657 172.168 154.92 167.085C161.182 162.003 165.522 154.935 167.221 147.05L167.531 145.62C168.101 143.003 167.736 140.27 166.499 137.895C165.262 135.52 163.232 133.653 160.761 132.62C162.867 131.081 164.592 129.08 165.805 126.771C167.019 124.463 167.688 121.907 167.761 119.3C167.761 112.3 162.761 106.12 155.461 102.88C158.459 100.992 161.052 98.5284 163.09 95.6307C165.127 92.733 166.569 89.4594 167.331 86C167.637 85.497 167.797 84.9186 167.791 84.33V81.72C167.811 81.5038 167.811 81.2862 167.791 81.07L172.731 79.44C173.541 79.1861 174.218 78.6249 174.618 77.877C175.018 77.1291 175.109 76.2542 174.871 75.44C174.721 74.9621 174.465 74.5244 174.121 74.16L160.911 59.88Z" fill="black"/>
</svg>
