<svg id="Layer_1" data-name="Layer 1" xmlns="http://www.w3.org/2000/svg" viewBox="0 0 175 175"><title>ground_meat</title><path d="M160.9,59.88a11.87,11.87,0,0,0,4.34-3.28,11.5,11.5,0,0,0,2.3-9.67l-.3-1.43c-3.69-17.38-16.18-27.6-23.3-32.14C130.06,4.5,111.41,0,88.73,0c-23.86,0-41.67,4.23-56,13.36-7.12,4.51-19.52,14.7-23.3,32.14l-.3,1.43a11.5,11.5,0,0,0,2.3,9.67,13.85,13.85,0,0,0,1.13,1.17l-.15.17L.61,74.45a3.23,3.23,0,0,0-.43,3,3.22,3.22,0,0,0,2.16,2.17l6.51,1.91v3a3.25,3.25,0,0,0,.46,1.67A26.86,26.86,0,0,0,21.15,103c-7.33,3.23-12.3,9.38-12.3,16.41a17.1,17.1,0,0,0,7,13.32,11.45,11.45,0,0,0-6.77,13l.3,1.43A35.43,35.43,0,0,0,43.85,175h88.92a35.41,35.41,0,0,0,34.44-27.95l.31-1.43a11.45,11.45,0,0,0-6.77-13,17.1,17.1,0,0,0,7-13.32c0-7-5-13.18-12.3-16.42A26.75,26.75,0,0,0,167.32,86a3.16,3.16,0,0,0,.46-1.67V81.72a3.53,3.53,0,0,0,0-.65l4.94-1.63a3.24,3.24,0,0,0,2.14-4,3.31,3.31,0,0,0-.75-1.28Z" transform="translate(0)"/></svg>