<?xml version="1.0" encoding="utf-8"?>
<!-- Generator: Adobe Illustrator 22.0.1, SVG Export Plug-In . SVG Version: 6.00 Build 0)  -->
<svg version="1.1" id="Layer_1" xmlns="http://www.w3.org/2000/svg" xmlns:xlink="http://www.w3.org/1999/xlink" x="0px" y="0px"
	 viewBox="0 0 100 125" style="enable-background:new 0 0 100 125;" xml:space="preserve">
<style type="text/css">
	.st0{fill:#FFFFFF;}
</style>
<title>Chicken Leg</title>
<g id="PsIPan.tif">
	<g>
		<path d="M50,48c8.4,0,16.9,0,25.3,0c3.2,0,5.3,2,5.3,5.2c0,11.5,0,23,0,34.5c0,3.1-2,5.2-5.1,5.2c-17,0-33.9,0-50.9,0
			c-3.1,0-5.1-2-5.1-5.1c0-11.6,0-23.1,0-34.7c0-3.1,2.1-5.1,5.1-5.1C33,48,41.5,48,50,48z M48,54.1c0.3,0,0.6,0,0.8,0
			c6.5,0,13,0,19.5,0c3.7,0,6.2,2.5,6.2,6.2c0,6.7,0,13.5,0,20.2c0,3.8-2.5,6.3-6.2,6.3c-6.5,0-13,0-19.5,0c-0.2,0-0.5,0-0.7,0
			c0,1.4,0,2.7,0,4.1c0.2,0,0.4,0,0.7,0c8.9,0,17.9,0,26.8,0c1.9,0,3.1-1.2,3.1-3.1c0-11.5,0-23.1,0-34.6c0-1.9-1.2-3.1-3.1-3.1
			c-8.9,0-17.8,0-26.8,0c-0.2,0-0.5,0-0.7,0C48,51.4,48,52.7,48,54.1z M33.6,50c-0.2,0-0.4,0-0.6,0c-2.8,0-5.7,0-8.5,0
			c-1.9,0-3.1,1.2-3.1,3.1c0,11.6,0,23.1,0,34.7c0,1.9,1.2,3.1,3.1,3.1c2.8,0,5.7,0,8.5,0c0.2,0,0.4,0,0.6,0c0-1.4,0-2.7,0-4
			c-0.7,0-1.5,0-2.2,0c-3.4,0-5.9-2.6-5.9-5.9c0-6.9,0-13.8,0-20.7c0-3.5,2.6-6,6-6c0.7,0,1.4,0,2.1,0C33.6,52.7,33.6,51.4,33.6,50z
			 M48.3,62.2c-1.3-2.5-5.3-4.9-9.7-3.8c-4.3,1.1-7.1,5-6.9,9.4c0.2,4.2,3.5,7.9,7.6,8.6c4.4,0.7,8.2-2,9.2-4.1
			c-0.9-0.2-1.9-0.4-2.9-0.6c-0.2,0.7-0.4,1.3-0.7,1.9c-0.2,0.5-0.6,0.8-1.1,0.8c-0.6,0-1.2,0-1.8,0c-0.7,0-1.1-0.4-1.1-1.2
			c0-0.7,0-1.3,0-1.8c-1.2-0.8-2.4-1.5-3.5-2.3c-0.3-0.2-0.5-0.7-0.6-1c-0.1-0.9,0-1.7,0-2.6c0-0.9,0.2-1.2,1.2-1.3
			c0.7-0.1,0.9-0.3,0.9-1c0-0.3,0-0.6,0-0.9c0-0.7,0.4-1.1,1.1-1.1c1.1-0.1,2.2,0.2,3.1,0.8c0.1,0.1,0.3,0.2,0.4,0.2
			C45,62.2,46.6,62.2,48.3,62.2z M35.8,77.4c0,4.5,0,9,0,13.4c3.4,0,6.8,0,10.1,0c0-4.5,0-8.9,0-13.4C42.5,79,39.1,78.9,35.8,77.4z
			 M45.9,50.1c-3.4,0-6.8,0-10.1,0c0,2.2,0,4.4,0,6.7c0.8-0.1,1.5-0.1,2.3-0.3c2.2-0.5,4.3-0.4,6.5,0.3c0.4,0.1,0.9,0.1,1.4,0.2
			C45.9,54.5,45.9,52.3,45.9,50.1z M42.8,72.4c0.1,0,0.1,0,0.2,0.1c0.1-0.1,0.2-0.3,0.2-0.4c0.2-0.5,0.4-1.1,0.6-1.6
			c0.3-1,0.7-1.2,1.7-0.9c1.1,0.3,2.3,0.5,3.5,0.7c0.2,0,0.5-0.1,0.6-0.3c0.6-1.9,0.6-3.8-0.1-5.7c-2.1,0-4.1,0-6.2,0
			c-0.4,0-0.9-0.3-1.3-0.4c-0.4-0.2-0.7-0.4-1.2-0.6c0.3,1.5-0.4,2.2-1.5,2.7c-0.4,0.2-0.6,0.4-0.5,0.8c0.1,0.4-0.1,0.9,0.1,1.1
			c0.9,0.6,1.7,1.4,2.8,1.5c0.8,0.1,1.1,0.4,1.2,1.3C42.9,71.2,42.8,71.8,42.8,72.4z M72.4,80.1c-0.8-0.2-1.4-0.4-2.1-0.7
			c-1.4-0.5-2.8-0.6-4.2,0c-2.1,0.8-4.2,0.8-6.3,0c-1.4-0.5-2.8-0.5-4.2,0c-2.1,0.8-4.2,0.8-6.3,0c-0.4-0.2-0.9-0.2-1.4-0.4
			c0,0.7,0,1.4,0,2c0.7,0.2,1.4,0.2,2,0.5c1.8,0.7,3.5,0.7,5.3,0c1.7-0.7,3.5-0.7,5.2,0c1.8,0.7,3.5,0.7,5.3,0
			c1.4-0.6,2.9-0.6,4.4-0.2c0.7,0.2,1.4,0.4,2.2,0.7C72.3,81.3,72.4,80.7,72.4,80.1z M72.4,76c-0.6-0.2-1.2-0.3-1.8-0.5
			c-1.5-0.6-3.1-0.6-4.6,0c-2,0.8-4,0.8-6,0c-1.5-0.6-3-0.6-4.5,0c-2,0.8-4,0.8-6,0c-0.6-0.2-1-0.2-1.4,0.3
			c-0.2,0.4-0.3,0.8-0.4,1.2c0.9,0.3,1.7,0.4,2.5,0.7c1.5,0.6,3,0.6,4.5,0c2-0.8,4-0.8,6,0c1.5,0.6,2.9,0.6,4.4,0c2-0.8,4-0.8,6,0
			c0.4,0.1,0.7,0.2,1.2,0.4C72.4,77.3,72.4,76.7,72.4,76z M72.4,61.7c0-0.4,0-0.7,0-1c0-1,0-1-0.9-1.2c-0.3-0.1-0.7-0.2-1-0.3
			c-1.5-0.6-2.9-0.6-4.4,0c-2,0.8-4,0.8-6.1,0c-1.4-0.6-2.9-0.6-4.3,0c-2.1,0.8-4.1,0.8-6.2,0c-0.4-0.2-0.8-0.2-1.3-0.4
			c0.7,0.9,1.4,1.7,2,2.4c0.1,0.1,0.3,0.2,0.5,0.3c1.4,0.5,2.8,0.5,4.2-0.1c2-0.8,3.9-0.8,5.9,0c1.5,0.6,3,0.6,4.5,0
			c2-0.8,4-0.8,6,0C71.6,61.4,71.9,61.5,72.4,61.7z M72.4,71.9c-0.7-0.2-1.3-0.3-1.8-0.6c-1.5-0.6-3.1-0.6-4.6,0c-2,0.8-4,0.8-6,0
			c-1.5-0.6-3-0.6-4.5,0c-1.3,0.5-2.7,0.7-4.1,0.5c-0.2,0-0.4,0-0.5,0.2c-0.3,0.5-0.5,0.9-0.8,1.5c1.6,0.7,3.1,0.6,4.6,0.1
			c1.9-0.7,3.8-0.8,5.7-0.1c1.7,0.7,3.3,0.6,5,0c1.8-0.7,3.6-0.6,5.4,0c0.5,0.2,1,0.3,1.5,0.5C72.4,73.2,72.4,72.6,72.4,71.9z
			 M52,65.9c0.9-0.1,1.8-0.2,2.5-0.5c2.2-0.8,4.3-0.9,6.5,0c1.3,0.5,2.7,0.5,4,0c2.2-0.9,4.3-0.8,6.4,0c0.3,0.1,0.6,0.2,0.9,0.2
			c0-0.7,0-1.3,0-1.9c-0.8-0.2-1.5-0.4-2.2-0.7c-1.3-0.5-2.7-0.5-4,0c-2.2,0.8-4.3,0.8-6.4,0c-1-0.4-2.1-0.5-3.1-0.2
			c-0.7,0.2-1.3,0.5-2,0.6c-1,0.2-2.1,0.3-3.2,0.4C51.6,64.5,51.8,65.1,52,65.9z M51.8,69.8c1,0.1,1.9,0.1,2.8-0.3
			c2.1-0.9,4.2-0.9,6.4,0c1.4,0.5,2.7,0.5,4.1,0c2.2-0.9,4.3-0.8,6.4,0c0.3,0.1,0.6,0.2,0.9,0.2c0-0.7,0-1.3,0-1.9
			c-0.7-0.2-1.4-0.4-2.1-0.7c-1.4-0.5-2.7-0.5-4,0c-2.2,0.8-4.3,0.9-6.4,0c-1.1-0.4-2.2-0.5-3.2-0.2c-1.5,0.4-2.9,1-4.5,0.8
			C51.9,68.6,51.9,69.2,51.8,69.8z M70.9,84c0-0.1,0-0.2-0.1-0.3c-1.6-0.7-3.2-0.8-4.9-0.2c-2,0.8-4,0.8-6,0c-1.5-0.6-3-0.6-4.5,0
			c-2,0.8-4,0.7-6,0c-0.5-0.2-1-0.3-1.5-0.4c0,0.6,0,1,0,1.5c7,0,13.9,0,20.8,0C69.5,84.6,70.2,84.2,70.9,84z M48,56.2
			c0,0-0.1,0.1-0.1,0.1c0.1,0.1,0.3,0.3,0.4,0.4c0.6,0.2,1.3,0.3,1.9,0.5c1.6,0.6,3.1,0.6,4.7,0c1.9-0.7,3.8-0.8,5.7,0
			c1.6,0.6,3.2,0.6,4.8,0c1.4-0.5,2.8-0.7,4.2-0.4c0.5,0.1,1,0.2,1.6,0.4c-0.8-0.7-1.7-1-2.7-1c-6.7,0-13.4,0-20.1,0
			C48.3,56.1,48.1,56.1,48,56.2z M27.6,79.1c0,0.7,0,1.2,0,1.7c0,0.2,0.2,0.4,0.3,0.4c0.7,0.2,1.3,0.4,2,0.6
			c1.1,0.4,2.2,0.4,3.3,0.1c0.2,0,0.4-0.3,0.4-0.4c0.1-0.5,0-1.1,0-1.7C31.5,80.5,29.6,79.9,27.6,79.1z M27.6,77
			c0.7,0.2,1.3,0.5,2,0.6c0.9,0.2,1.7,0.4,2.6,0.4c1.4,0,1.5-0.1,1.5-1.5c0-0.6-0.2-0.7-0.7-0.6c-1.3,0.2-2.6,0.1-3.9-0.4
			c-0.5-0.2-1-0.3-1.5-0.5C27.6,75.8,27.6,76.4,27.6,77z M27.7,58.7c-0.1,0.7-0.1,1.4-0.1,2c1.1,0.3,2.1,0.7,3.1,0.9
			c0.2,0,0.4,0,0.5-0.1c0.5-0.6,0.9-1.2,1.4-1.9C30.8,59.9,29.3,59.3,27.7,58.7z M31.6,74.1c0-0.1,0.1-0.1,0.1-0.2
			c-0.1-0.2-0.3-0.4-0.4-0.6c-0.4-1-1.1-1.6-2.2-1.8c-0.5-0.1-1-0.3-1.5-0.5c0,0.7,0,1.4,0,2C28.9,73.4,30.3,73.7,31.6,74.1z
			 M33.6,56.1C32,56.2,30.4,55.8,29,57c1.2,0.6,2.3,0.8,3.6,0.6C33.7,57.5,33.7,57.4,33.6,56.1z M30.2,63.7
			c-0.9-0.3-1.7-0.6-2.6-0.9c0,0.7,0,1.4,0,2c0.7,0.2,1.4,0.4,2.1,0.6C29.9,64.8,30,64.3,30.2,63.7z M29.8,69.5
			c-0.1-0.6-0.1-1.1-0.2-1.6c0-0.1-0.1-0.3-0.2-0.3c-0.6-0.2-1.2-0.4-1.9-0.6c0,0.7,0,1.2,0,1.7c0,0.1,0.1,0.3,0.2,0.4
			C28.4,69.2,29.1,69.3,29.8,69.5z M28.9,83.7c1.4,1.3,3.1,0.9,4.7,1c0-0.3,0-0.5,0-0.7C32,84.3,30.5,84.2,28.9,83.7z"/>
		<path class="st0" d="M48,54.1c0-1.4,0-2.7,0-4.1c0.3,0,0.5,0,0.7,0c8.9,0,17.8,0,26.8,0c1.9,0,3.1,1.2,3.1,3.1
			c0,11.5,0,23.1,0,34.6c0,1.9-1.2,3.1-3.1,3.1c-8.9,0-17.9,0-26.8,0c-0.2,0-0.4,0-0.7,0c0-1.4,0-2.7,0-4.1c0.2,0,0.5,0,0.7,0
			c6.5,0,13,0,19.5,0c3.8,0,6.2-2.5,6.2-6.3c0-6.7,0-13.5,0-20.2c0-3.7-2.5-6.2-6.2-6.2c-6.5,0-13,0-19.5,0
			C48.5,54.1,48.3,54.1,48,54.1z"/>
		<path class="st0" d="M33.6,50c0,1.4,0,2.7,0,4.1c-0.7,0-1.4,0-2.1,0c-3.5,0-6,2.5-6,6c0,6.9,0,13.8,0,20.7c0,3.4,2.6,5.9,5.9,5.9
			c0.7,0,1.4,0,2.2,0c0,1.4,0,2.7,0,4c-0.2,0-0.4,0-0.6,0c-2.8,0-5.7,0-8.5,0c-1.9,0-3.1-1.2-3.1-3.1c0-11.6,0-23.1,0-34.7
			c0-1.9,1.2-3.1,3.1-3.1c2.8,0,5.7,0,8.5,0C33.2,50,33.4,50,33.6,50z"/>
		<path class="st0" d="M48.3,62.2c-1.7,0-3.3,0-5,0c-0.1,0-0.3-0.1-0.4-0.2c-0.9-0.7-2-0.9-3.1-0.8c-0.7,0-1.1,0.4-1.1,1.1
			c0,0.3,0,0.6,0,0.9c0,0.7-0.2,0.9-0.9,1c-0.9,0.1-1.2,0.4-1.2,1.3c0,0.9-0.1,1.7,0,2.6c0,0.4,0.3,0.8,0.6,1
			c1.1,0.8,2.3,1.5,3.5,2.3c0,0.5,0,1.2,0,1.8c0,0.8,0.4,1.1,1.1,1.2c0.6,0,1.2,0,1.8,0c0.6,0,1-0.3,1.1-0.8
			c0.2-0.6,0.4-1.3,0.7-1.9c1,0.2,1.9,0.4,2.9,0.6c-1,2.1-4.7,4.8-9.2,4.1c-4.1-0.7-7.4-4.4-7.6-8.6c-0.2-4.4,2.7-8.3,6.9-9.4
			C43,57.3,47,59.8,48.3,62.2z"/>
		<path class="st0" d="M45.9,50.1c0,2.3,0,4.5,0,6.8c-0.5,0-1,0-1.4-0.2C42.3,56,40.2,56,38,56.5c-0.7,0.2-1.5,0.2-2.3,0.3
			c0-2.2,0-4.4,0-6.7C39.1,50.1,42.5,50.1,45.9,50.1z"/>
		<path class="st0" d="M42.8,72.4c0-0.6,0-1.2,0-1.8c0-0.9-0.3-1.2-1.2-1.3c-1.2-0.1-1.9-0.9-2.8-1.5c-0.2-0.1-0.1-0.7-0.1-1.1
			c-0.1-0.4,0.1-0.6,0.5-0.8c1-0.5,1.8-1.2,1.5-2.7c0.5,0.3,0.9,0.5,1.2,0.6c0.4,0.2,0.8,0.4,1.3,0.4c2.1,0,4.1,0,6.2,0
			c0.7,1.9,0.7,3.8,0.1,5.7c0,0.1-0.4,0.3-0.6,0.3c-1.2-0.2-2.3-0.4-3.5-0.7c-1-0.3-1.4-0.1-1.7,0.9c-0.2,0.5-0.4,1.1-0.6,1.6
			c-0.1,0.1-0.1,0.3-0.2,0.4C43,72.4,42.9,72.4,42.8,72.4z M42.7,65.9c-0.4-0.3-0.7-0.6-1-0.5c-0.2,0-0.6,0.4-0.5,0.6
			c0.1,0.2,0.4,0.5,0.6,0.6C42.1,66.6,42.3,66.2,42.7,65.9z"/>
		<path class="st0" d="M72.4,80.1c0,0.6-0.1,1.2-0.1,1.9c-0.8-0.3-1.5-0.5-2.2-0.7c-1.5-0.4-3-0.4-4.4,0.2c-1.8,0.7-3.5,0.7-5.3,0
			c-1.7-0.7-3.5-0.7-5.2,0c-1.8,0.7-3.5,0.7-5.3,0c-0.6-0.3-1.3-0.3-2-0.5c0-0.6,0-1.2,0-2c0.5,0.1,1,0.2,1.4,0.4
			c2.1,0.8,4.2,0.9,6.3,0c1.4-0.5,2.8-0.5,4.2,0c2.1,0.8,4.2,0.8,6.3,0c1.4-0.6,2.8-0.5,4.2,0C71,79.7,71.7,79.9,72.4,80.1z"/>
		<path class="st0" d="M72.4,76c0,0.6,0,1.2,0,2c-0.4-0.1-0.8-0.2-1.2-0.4c-2-0.8-4-0.8-6,0c-1.5,0.6-2.9,0.6-4.4,0
			c-2-0.8-4-0.8-6,0c-1.5,0.6-3,0.5-4.5,0c-0.7-0.3-1.5-0.4-2.5-0.7c0.1-0.4,0.2-0.8,0.4-1.2c0.3-0.5,0.8-0.5,1.4-0.3
			c2,0.8,4,0.8,6,0c1.5-0.6,3-0.6,4.5,0c2,0.8,4,0.8,6,0c1.5-0.6,3.1-0.6,4.6,0C71.2,75.7,71.8,75.8,72.4,76z"/>
		<path class="st0" d="M72.4,61.7c-0.5-0.2-0.8-0.2-1.2-0.4c-2-0.8-4-0.8-6,0c-1.5,0.6-3,0.6-4.5,0c-2-0.8-3.9-0.8-5.9,0
			c-1.4,0.5-2.8,0.6-4.2,0.1c-0.2-0.1-0.4-0.1-0.5-0.3c-0.7-0.8-1.3-1.5-2-2.4c0.5,0.1,0.9,0.2,1.3,0.4c2.1,0.8,4.1,0.9,6.2,0
			c1.4-0.6,2.9-0.6,4.3,0c2,0.8,4,0.8,6.1,0c1.5-0.6,2.9-0.5,4.4,0c0.3,0.1,0.7,0.2,1,0.3c0.9,0.2,0.9,0.2,0.9,1.2
			C72.4,61,72.4,61.3,72.4,61.7z"/>
		<path class="st0" d="M72.4,71.9c0,0.6,0,1.3,0,2c-0.5-0.2-1-0.3-1.5-0.5c-1.8-0.6-3.6-0.7-5.4,0c-1.7,0.7-3.3,0.7-5,0
			c-1.9-0.7-3.8-0.7-5.7,0.1c-1.5,0.6-3,0.6-4.6-0.1c0.3-0.5,0.5-1,0.8-1.5c0.1-0.1,0.3-0.2,0.5-0.2c1.4,0.2,2.7,0,4.1-0.5
			c1.5-0.6,3-0.6,4.5,0c2,0.8,4,0.8,6,0c1.5-0.6,3.1-0.6,4.6,0C71.1,71.6,71.7,71.8,72.4,71.9z"/>
		<path class="st0" d="M52,65.9c-0.2-0.8-0.3-1.5-0.5-2c1.1-0.1,2.1-0.2,3.2-0.4c0.7-0.1,1.3-0.4,2-0.6c1.1-0.3,2.1-0.2,3.1,0.2
			c2.2,0.9,4.3,0.9,6.4,0c1.3-0.5,2.7-0.5,4,0c0.7,0.2,1.4,0.4,2.2,0.7c0,0.6,0,1.2,0,1.9c-0.3-0.1-0.6-0.1-0.9-0.2
			c-2.1-0.9-4.3-0.9-6.4,0c-1.3,0.5-2.7,0.5-4,0c-2.2-0.9-4.3-0.8-6.5,0C53.7,65.8,52.9,65.8,52,65.9z"/>
		<path class="st0" d="M51.8,69.8c0.1-0.7,0.2-1.3,0.3-2c1.6,0.2,3-0.4,4.5-0.8c1.1-0.3,2.2-0.2,3.2,0.2c2.2,0.9,4.3,0.9,6.4,0
			c1.3-0.5,2.7-0.5,4,0c0.7,0.2,1.4,0.4,2.1,0.7c0,0.6,0,1.2,0,1.9c-0.3-0.1-0.6-0.1-0.9-0.2c-2.1-0.9-4.3-0.9-6.4,0
			c-1.4,0.5-2.7,0.5-4.1,0c-2.1-0.8-4.3-0.8-6.4,0C53.7,69.9,52.8,70,51.8,69.8z"/>
		<path class="st0" d="M70.9,84c-0.7,0.2-1.4,0.6-2.1,0.6c-6.9,0-13.8,0-20.8,0c0-0.5,0-1,0-1.5c0.5,0.1,1,0.2,1.5,0.4
			c2,0.8,4,0.8,6,0c1.5-0.6,3-0.6,4.5,0c2,0.8,4,0.8,6,0c1.6-0.6,3.3-0.6,4.9,0.2C70.9,83.9,70.9,83.9,70.9,84z"/>
		<path class="st0" d="M48,56.2c0.1,0,0.3,0,0.4,0c6.7,0,13.4,0,20.1,0c1,0,1.8,0.3,2.7,1c-0.6-0.1-1.1-0.3-1.6-0.4
			c-1.4-0.3-2.8-0.1-4.2,0.4c-1.6,0.6-3.2,0.6-4.8,0c-1.9-0.7-3.8-0.7-5.7,0c-1.6,0.6-3.1,0.6-4.7,0c-0.6-0.2-1.3-0.3-1.9-0.5
			c-0.2,0-0.3-0.2-0.4-0.4C47.9,56.3,48,56.2,48,56.2z"/>
		<path class="st0" d="M27.6,79.1c2,0.8,4,1.4,6.1,0.8c0,0.6,0,1.2,0,1.7c0,0.2-0.3,0.4-0.4,0.4c-1.1,0.3-2.2,0.2-3.3-0.1
			c-0.7-0.2-1.3-0.4-2-0.6c-0.1-0.1-0.3-0.3-0.3-0.4C27.5,80.3,27.6,79.8,27.6,79.1z"/>
		<path class="st0" d="M27.6,77c0-0.6,0-1.2,0-2c0.5,0.2,1,0.3,1.5,0.5c1.3,0.5,2.6,0.6,3.9,0.4c0.5-0.1,0.8,0,0.7,0.6
			c0,1.4-0.1,1.5-1.5,1.5c-0.9,0-1.8-0.2-2.6-0.4C28.9,77.5,28.3,77.2,27.6,77z"/>
		<path class="st0" d="M27.7,58.7c1.6,0.6,3.1,1.1,4.9,0.9c-0.5,0.7-0.9,1.3-1.4,1.9c-0.1,0.1-0.4,0.1-0.5,0.1c-1-0.3-2-0.6-3.1-0.9
			C27.6,60.1,27.6,59.5,27.7,58.7z"/>
		<path class="st0" d="M31.6,74.1c-1.3-0.4-2.6-0.7-4-1.1c0-0.6,0-1.3,0-2c0.5,0.2,1,0.4,1.5,0.5c1.1,0.2,1.8,0.8,2.2,1.8
			c0.1,0.2,0.3,0.4,0.4,0.6C31.6,74,31.6,74,31.6,74.1z"/>
		<path class="st0" d="M33.6,56.1c0.1,1.3,0.1,1.3-1,1.5c-1.2,0.2-2.4,0-3.6-0.6C30.4,55.8,32,56.2,33.6,56.1z"/>
		<path class="st0" d="M30.2,63.7c-0.2,0.6-0.3,1.2-0.5,1.7c-0.7-0.2-1.4-0.4-2.1-0.6c0-0.6,0-1.2,0-2
			C28.5,63.1,29.3,63.4,30.2,63.7z"/>
		<path class="st0" d="M29.8,69.5c-0.7-0.2-1.3-0.3-2-0.5c-0.1,0-0.2-0.2-0.2-0.4c0-0.5,0-1.1,0-1.7c0.7,0.2,1.3,0.4,1.9,0.6
			c0.1,0,0.2,0.2,0.2,0.3C29.7,68.4,29.7,68.9,29.8,69.5z"/>
		<path class="st0" d="M28.9,83.7c1.5,0.5,3.1,0.6,4.7,0.3c0,0.2,0,0.4,0,0.7C32,84.6,30.3,85,28.9,83.7z"/>
		<circle cx="41.8" cy="66.2" r="0.6"/>
	</g>
</g>
</svg>
