<svg id="Layer_1" data-name="Layer 1" xmlns="http://www.w3.org/2000/svg" viewBox="0 0 175 175"><title>lamb</title><path d="M169.11,88.64c-2.74-14.14-18.23-25.85-28.74-32.32V55.26c-.05-8.56-3.86-16.44-10-20.65a28,28,0,0,0,.42-4.85c-.14-13.27-9.08-23.9-20-23.79a17.51,17.51,0,0,0-9.26,2.71c-7.25-10.36-20-11.63-28.59-2.82A24,24,0,0,0,70.82,8.4a17.21,17.21,0,0,0-4.61-.64c-10.95-.11-19.9,10.57-20,23.87v.51c-9,2.39-15.37,12-15.46,23.12a27.83,27.83,0,0,0,.66,6C22.15,68,12.19,77.58,10,88.64c-.85,4.63-14.13,26-8.7,33.21,3.31,4.38,20.26-7.75,24.09-7.75,4.61,0,8.7-3.38,12.26-8.5C40.8,140.7,66.61,175,92,175c27.19,0,44.57-38.27,45.17-77,4.44,9.16,10,16.08,16.59,16.08,3.83,0,16.15,17.54,19.46,13.15C178.65,120.06,170,93.27,169.11,88.64Z" transform="translate(0)"/></svg>