<svg width="175" height="175" viewBox="0 0 175 175" fill="none" xmlns="http://www.w3.org/2000/svg">
<path d="M169.11 88.6404C166.37 74.5004 150.88 62.7904 140.37 56.3204V55.2604C140.32 46.7004 136.51 38.8204 130.37 34.6104C130.651 33.009 130.791 31.3862 130.79 29.7604C130.65 16.4904 121.71 5.86041 110.79 5.97041C107.511 5.98872 104.302 6.92771 101.53 8.68041C94.2802 -1.67959 81.5302 -2.94959 72.9402 5.86041C72.1759 6.6573 71.4676 7.50598 70.8202 8.40041C69.3196 7.97931 67.7687 7.76401 66.2102 7.76041C55.2602 7.65041 46.3102 18.3304 46.2102 31.6304V32.1404C37.2102 34.5304 30.8402 44.1404 30.7502 55.2604C30.752 57.2784 30.9733 59.2903 31.4102 61.2604C22.1502 68.0004 12.1902 77.5804 10.0002 88.6404C9.15019 93.2704 -4.12981 114.64 1.30019 121.85C4.61019 126.23 21.5602 114.1 25.3902 114.1C30.0002 114.1 34.0902 110.72 37.6502 105.6C40.8002 140.7 66.6102 175 92.0002 175C119.19 175 136.57 136.73 137.17 98.0004C141.61 107.16 147.17 114.08 153.76 114.08C157.59 114.08 169.91 131.62 173.22 127.23C178.65 120.06 170 93.2704 169.11 88.6404Z" fill="black"/>
</svg>
