<svg id="Layer_1" data-name="Layer 1" xmlns="http://www.w3.org/2000/svg" viewBox="0 0 125 125"><title>lamb</title><path d="M149.08,93.37c-2.14-10.69-14.25-19.58-22.46-24.48v-.8a18.83,18.83,0,0,0-7.82-15.6,20.23,20.23,0,0,0,.33-3.65c0-9.94-7-18-15.66-18a14,14,0,0,0-7.23,2,14.35,14.35,0,0,0-20.1-4.11,14.76,14.76,0,0,0-3.9,3.9,13.37,13.37,0,0,0-3.61-.49C60,32.16,53,40.29,53,50.19v.33c-6.92,1.86-12.09,9-12.09,17.56a20.17,20.17,0,0,0,.56,4.51c-7.25,5.08-15,12.36-16.73,20.74a17.19,17.19,0,0,0,3.59,14.24c2.59,3.31,5.43,5,8.42,5,3.4,0,8.85-5.83,11.53-9.37.15-.2.42-.07.44.18,2.93,29,14.58,47.74,38.2,47.9,26.57.19,37.72-8.94,40-47.28-1-2.07,5,8.6,10.25,8.6,3,0,5.82-1.68,8.41-5A17.16,17.16,0,0,0,149.08,93.37Z" transform="translate(-24.41 -26.28)"/></svg>