<svg id="Layer_1" data-name="Layer 1" xmlns="http://www.w3.org/2000/svg" viewBox="0 0 125 125"><title>goat</title><path d="M147.19,66.44c-2.14-10.52-14.25-19.25-22.46-24.07,0-.26,0-.52,0-.78a18.37,18.37,0,0,0-7.82-15.33,19.49,19.49,0,0,0,.33-3.59c0-9.77-7-17.71-15.65-17.71a14.15,14.15,0,0,0-7.23,2,14.5,14.5,0,0,0-24-.21,13.71,13.71,0,0,0-3.61-.48c-8.62,0-15.64,8-15.64,17.72v.33c-6.92,1.83-12.09,8.87-12.09,17.26A19.64,19.64,0,0,0,39.57,46c-7.24,5-15,12.16-16.71,20.4a16.67,16.67,0,0,0,3.59,14c2.59,3.26,5.42,4.92,8.41,4.92,3.6,0,6.79-2.51,9.58-6.35-1.67,29.3,14.9,46.29,38.74,46.45,26.56.19,45.42-16.89,39.05-52.07,3.47,6.82,7.8,12,13,12,3,0,5.82-1.66,8.41-4.92A16.67,16.67,0,0,0,147.19,66.44Z" transform="translate(-22.53 -0.5)"/></svg>