<?xml version="1.0" encoding="utf-8"?>
<!-- Generator: Adobe Illustrator 22.0.1, SVG Export Plug-In . SVG Version: 6.00 Build 0)  -->
<svg version="1.1" id="Layer_1" xmlns="http://www.w3.org/2000/svg" xmlns:xlink="http://www.w3.org/1999/xlink" x="0px" y="0px"
	 viewBox="0 0 64 80" style="enable-background:new 0 0 64 80;" xml:space="preserve">
<g>
	<path d="M31.9,3.4c0.2-0.5,0-1.1-0.6-1.3C31.3,2,31.1,2,31,2h-3.9c-0.4,0-0.8,0.2-0.9,0.6c-2.6,6.5-4.3,13.4-5,20.4
		c-2.5,0.2-4.8,1.4-6.3,3.4l-10,13.2c-2.8,3.7-3.6,8.5-2.1,12.8c1.8,5.7,7.1,9.5,13,9.5H48c5,0,9-4,9-9V27c0-1.8-1.2-3.3-2.9-3.8
		c0.7-6.8,2.3-13.5,4.8-19.8c0.2-0.5,0-1.1-0.6-1.3C58.3,2,58.1,2,58,2h-3.9c-0.4,0-0.8,0.2-0.9,0.6c-2.6,6.5-4.3,13.4-5,20.4h-3
		c0.7-6.7,2.3-13.3,4.8-19.6c0.2-0.5,0-1.1-0.6-1.3C49.3,2,49.1,2,49,2h-3.9c-0.4,0-0.8,0.2-0.9,0.6c-2.6,6.5-4.3,13.4-5,20.4h-3
		c0.7-6.7,2.3-13.3,4.8-19.6c0.2-0.5,0-1.1-0.6-1.3C40.3,2,40.1,2,40,2h-3.9c-0.4,0-0.8,0.2-0.9,0.6c-2.6,6.5-4.3,13.4-5,20.4h-3
		C27.8,16.3,29.4,9.7,31.9,3.4z M27.8,4h1.8c-2.3,6.1-3.8,12.5-4.4,19h-2C23.8,16.5,25.4,10.1,27.8,4z M15.7,60
		c-5.1,0-9.6-3.3-11.1-8.1C3.4,48.1,4,44,6.4,40.9l10-13.2c1.2-1.7,3.2-2.6,5.3-2.6h22.5c-0.5,0.4-1,0.9-1.4,1.4l-10,13.2
		c-2.8,3.7-3.6,8.5-2.1,12.8c1,3.1,3.1,5.8,5.9,7.5H15.7z M55,27v26c0,3.9-3.1,7-7,7h-4.3c-5.1,0-9.6-3.3-11.1-8.1
		c-1.2-3.7-0.6-7.9,1.8-11l10-13.2c1.2-1.7,3.2-2.6,5.3-2.6H53C54.1,25,55,25.9,55,27z M54.8,4h1.8c-2.3,6.1-3.8,12.5-4.4,19h-2
		C50.8,16.5,52.4,10.1,54.8,4z M45.8,4h1.8c-2.3,6.1-3.8,12.5-4.4,19h-2C41.8,16.5,43.4,10.1,45.8,4z M36.8,4h1.8
		c-2.3,6.1-3.8,12.5-4.4,19h-2C32.8,16.5,34.4,10.1,36.8,4z"/>
	<path d="M49.6,27c-1.4,0-2.8,0.7-3.7,1.8l-3.1,4.1c-0.5,0.6-0.7,1.4-0.6,2.1c-0.8,0.1-1.4,0.5-1.9,1.1L36,42.1
		c-2,2.6-2.5,6.1-1.5,9.2c1.3,4,5,6.7,9.2,6.8H46c3.9,0,7-3.1,7-7v-9.7c0-0.8-0.4-1.6-1-2.2c0.6-0.6,1-1.4,1-2.2v-6.5
		C53,28.5,51.5,27,49.6,27z M44.5,34.1l3.1-4.1c0.5-0.7,1.3-1,2.1-1c0.8,0,1.4,0.6,1.4,1.4v6.5c0,0.6-0.4,1-1,1
		c-0.1,0-0.3,0-0.4-0.1l-4.7-2.1c-0.5-0.2-0.7-0.8-0.5-1.3C44.4,34.3,44.4,34.2,44.5,34.1z M51,51c0,2.8-2.2,5-5,5h-2.3
		c-3.3,0-6.3-2.2-7.3-5.4c-0.8-2.5-0.4-5.2,1.2-7.3l0,0l4.4-5.8c0.3-0.4,0.8-0.5,1.2-0.3l0.8,0.4l0,0l4.7,2.1l0,0l1.7,0.8
		c0.4,0.2,0.6,0.5,0.6,0.9L51,51z"/>
</g>
</svg>
