<?xml version="1.0" encoding="utf-8"?>
<!-- Generator: Adobe Illustrator 22.0.1, SVG Export Plug-In . SVG Version: 6.00 Build 0)  -->
<svg version="1.1" id="Layer_1" xmlns="http://www.w3.org/2000/svg" xmlns:xlink="http://www.w3.org/1999/xlink" x="0px" y="0px"
	 viewBox="0 0 64 80" style="enable-background:new 0 0 64 80;" xml:space="preserve">
<g>
	<path d="M31.9,3.4c0.2-0.5,0-1.1-0.6-1.3C31.3,2,31.1,2,31,2h-3.9c-0.4,0-0.8,0.2-0.9,0.6c-2.6,6.5-4.3,13.4-5,20.4
		c-2.5,0.2-4.8,1.4-6.3,3.4l-10,13.2c-2.8,3.7-3.6,8.5-2.1,12.8c1.8,5.7,7.1,9.5,13,9.5H48c5,0,9-4,9-9V27c0-1.8-1.2-3.3-2.9-3.8
		c0.7-6.8,2.3-13.5,4.8-19.8c0.2-0.5,0-1.1-0.6-1.3C58.3,2,58.1,2,58,2h-3.9c-0.4,0-0.8,0.2-0.9,0.6c-2.6,6.5-4.3,13.4-5,20.4h-3
		c0.7-6.7,2.3-13.3,4.8-19.6c0.2-0.5,0-1.1-0.6-1.3C49.3,2,49.1,2,49,2h-3.9c-0.4,0-0.8,0.2-0.9,0.6c-2.6,6.5-4.3,13.4-5,20.4h-3
		c0.7-6.7,2.3-13.3,4.8-19.6c0.2-0.5,0-1.1-0.6-1.3C40.3,2,40.1,2,40,2h-3.9c-0.4,0-0.8,0.2-0.9,0.6c-2.6,6.5-4.3,13.4-5,20.4h-3
		C27.8,16.3,29.4,9.7,31.9,3.4z"/>
</g>
</svg>
