<svg id="Layer_1" data-name="Layer 1" xmlns="http://www.w3.org/2000/svg" viewBox="0 0 175 175"><title>pork</title><path d="M82.82,3.29h4c5.76,2.07,12,3.39,17.16,6.4,6.19,3.58,10.88,4.22,17.71.5C135,2.92,149.85,3.41,164.6,5.49c4.83.69,8.1,2.44,8.22,7.8v11a20.79,20.79,0,0,0-.64,2.87C171,41.67,167,55.21,158.87,67.46c-.71,1.08-.63,3.09-.22,4.46,5.56,18.66,5.15,37.08-1.81,55.33C148.93,148,136.38,164.63,115,172.77c-7.06,2.68-14.75,3.73-22.16,5.52h-17a37,37,0,0,1-4.33-.91C63,174.59,53.8,173,46.24,168.64,16.42,151.32.91,112.53,9.7,78.4c1.84-7.11,2.61-13.23-2.42-19.23a15.56,15.56,0,0,1-2.77-6.34C2.17,42.68,0,32.48-2.18,22.29v-7c1.56-2.94-.59-7.85,4.6-8.85C20.52,3,38.18,3,54.67,12.87a5,5,0,0,0,3.88.45C66.69,10.1,74.74,6.66,82.82,3.29Z" transform="translate(2.18 -3.29)"/></svg>