<?xml version="1.0" encoding="utf-8"?>
<!-- Generator: Adobe Illustrator 22.0.1, SVG Export Plug-In . SVG Version: 6.00 Build 0)  -->
<svg version="1.1" id="Layer_1" xmlns="http://www.w3.org/2000/svg" xmlns:xlink="http://www.w3.org/1999/xlink" x="0px" y="0px"
	 viewBox="0 0 566.9 708.7" style="enable-background:new 0 0 566.9 708.7;" xml:space="preserve">
<style type="text/css">
	.st0{fill:none;}
</style>
<title>a</title>
<path class="st0" d="M456.6,145c-0.3-2.9-2.5-5.4-5.4-6c-3-0.6-71.5-14.4-113.3,14.6c-21.5-12.2-42.3-19.2-57.8-19.2
	c-15.1,0-35.3,6.6-56.3,18.3c-0.1,0.1-0.2,0.1-0.4,0.2c-0.1,0-0.1-0.1-0.2-0.1c-41.9-27.8-109.1-14.3-112-13.7c-3,0.6-5.1,3-5.4,6
	c-5.2,58.1,18.1,91.5,27.6,102.5c0.1,0.1,0.2,0.2,0.3,0.3c0,0,0,0,0,0c0,0,0,0,0,0c0,0,0,0,0,0c0,0,0,0,0,0
	c-11,25.6-16.4,57.6-4,93.4c15,43.4,43.7,74.5,82.8,90c18.5,7.2,38.2,11,58,11c3.7,0,6.5-0.1,8.2-0.3c0.8-0.1,1.7-0.1,2.5,0
	c22.6,1.2,45.2-2.4,66.3-10.7c39.1-15.5,67.7-46.6,82.8-90c12.1-35,7.2-66.4-3.3-91.7C434.7,241.4,462.1,207.7,456.6,145z"/>
</svg>
