<svg id="Layer_1" data-name="Layer 1" xmlns="http://www.w3.org/2000/svg" viewBox="0 0 125 125"><title>pork</title><path d="M85.71,25h2.86c4.12,1.48,8.57,2.42,12.26,4.57,4.42,2.56,7.77,3,12.65.36,9.51-5.19,20.11-4.84,30.65-3.36,3.45.49,5.78,1.74,5.87,5.57V40a16,16,0,0,0-.46,2c-.84,10.36-3.7,20-9.5,28.79a4.32,4.32,0,0,0-.16,3.18,59.94,59.94,0,0,1-1.29,39.52c-5.65,14.82-14.62,26.7-29.89,32.52-5,1.91-10.54,2.66-15.83,3.94H80.73a24.94,24.94,0,0,1-3.09-.65c-6.08-2-12.65-3.13-18-6.24C38.29,130.74,27.21,103,33.49,78.65c1.31-5.08,1.86-9.45-1.73-13.74a11.12,11.12,0,0,1-2-4.52C28.11,53.14,26.56,45.85,25,38.57v-5c1.11-2.1-.42-5.61,3.29-6.32,12.92-2.46,25.54-2.46,37.32,4.59a3.53,3.53,0,0,0,2.77.32C74.19,29.86,79.94,27.41,85.71,25Z" transform="translate(-25 -25)"/></svg>