<?xml version="1.0" encoding="utf-8"?>
<!-- Generator: Adobe Illustrator 22.0.1, SVG Export Plug-In . SVG Version: 6.00 Build 0)  -->
<svg version="1.1" id="Layer_1" xmlns="http://www.w3.org/2000/svg" xmlns:xlink="http://www.w3.org/1999/xlink" x="0px" y="0px"
	 viewBox="0 0 566.9 708.7" style="enable-background:new 0 0 566.9 708.7;" xml:space="preserve">
<title>a</title>
<g>
	<path d="M270.6,442.3c-19.8,0-39.5-3.8-58-11c-39.1-15.5-67.8-46.6-82.8-90c-18.1-52.3,1.7-96.5,21.6-124.4
		c35.1-49.4,94.9-82.5,128.7-82.5s93.6,33.2,128.7,82.5c19.9,27.9,39.7,72.2,21.6,124.4c-15.1,43.4-43.7,74.5-82.8,90
		c-21.1,8.3-43.7,11.9-66.3,10.7c-0.8-0.1-1.7-0.1-2.5,0C277.1,442.2,274.3,442.3,270.6,442.3z M280.2,147.9
		c-29.8,0-85.5,31.6-117.7,76.9c-18,25.3-36.1,65.3-19.8,112.2c13.9,40.1,39.2,67.6,75,81.8c19.2,7.5,39.8,10.9,60.3,9.8
		c1.5-0.1,2.9-0.1,4.4,0c20.6,1.1,41.2-2.3,60.3-9.8c35.9-14.2,61.1-41.7,75-81.8c16.3-46.8-1.8-86.8-19.8-112.2
		C365.7,179.5,310,147.9,280.2,147.9L280.2,147.9z"/>
	<path d="M283.8,395.4c-37.2,0-67.5-24.8-67.5-55.2s30.3-55.2,67.5-55.2s67.5,24.8,67.5,55.2S321,395.4,283.8,395.4z M283.8,298.4
		c-29.8,0-54,18.7-54,41.8s24.2,41.8,54,41.8s54-18.7,54-41.8S313.6,298.4,283.8,298.4z"/>
	<circle cx="265" cy="342" r="9.6"/>
	<circle cx="301.3" cy="342" r="9.6"/>
	<path d="M141.8,253.4c-1.7,0-3.3-0.6-4.5-1.8c-1.5-1.4-37.7-35.4-31.4-106.5c0.3-3,2.4-5.4,5.4-6c3-0.6,74.5-15,116,16.5
		c3,2.3,3.5,6.5,1.3,9.5s-6.5,3.5-9.5,1.3c-30.8-23.4-83.7-17.5-100.1-14.9c-1.8,30.9,5.3,53.3,11.8,66.9
		c7.4,15.5,15.6,23.3,15.7,23.4c2.7,2.5,2.9,6.8,0.4,9.5C145.5,252.6,143.7,253.4,141.8,253.4L141.8,253.4z"/>
	<path d="M420.6,253.4c-3.7,0-6.8-3-6.8-6.7c0-1.9,0.8-3.7,2.2-5c0.2-0.2,8.3-7.9,15.7-23.4c6.5-13.6,13.6-36,11.8-66.9
		c-16.4-2.6-69.3-8.5-100.1,14.9c-3,2.3-7.2,1.7-9.5-1.3c-2.3-3-1.7-7.2,1.3-9.5c41.5-31.5,112.9-17.1,116-16.5
		c2.9,0.6,5.1,3.1,5.4,6c6.2,71.2-29.9,105.1-31.4,106.5C423.9,252.7,422.3,253.4,420.6,253.4z"/>
</g>
</svg>
