<svg width="175" height="175" viewBox="0 0 175 175" fill="none" xmlns="http://www.w3.org/2000/svg">
<path d="M85 0H89C94.76 2.07 101 3.39 106.16 6.4C112.35 9.98 117.04 10.62 123.87 6.9C137.18 -0.37 152.03 0.12 166.78 2.2C171.61 2.89 174.88 4.64 175 10V21C174.719 21.9404 174.505 22.8994 174.36 23.87C173.18 38.38 169.18 51.92 161.05 64.17C160.34 65.25 160.42 67.26 160.83 68.63C166.39 87.29 165.98 105.71 159.02 123.96C151.11 144.71 138.56 161.34 117.18 169.48C110.12 172.16 102.43 173.21 95.02 175H78.02C76.5598 174.783 75.1139 174.479 73.69 174.09C65.18 171.3 55.98 169.71 48.42 165.35C18.6 148.03 3.09 109.24 11.88 75.11C13.72 68 14.49 61.88 9.46 55.88C8.07257 54.0013 7.12584 51.8344 6.69 49.54C4.35 39.39 2.18 29.19 0 19V12C1.56 9.06 -0.59 4.15 4.6 3.15C22.7 -0.29 40.36 -0.29 56.85 9.58C57.4334 9.91154 58.0776 10.1222 58.7442 10.1996C59.4108 10.2769 60.0862 10.2192 60.73 10.03C68.87 6.81 76.92 3.37 85 0Z" fill="black"/>
</svg>
