<svg id="Layer_1" data-name="Layer 1" xmlns="http://www.w3.org/2000/svg" viewBox="0 0 112 175"><title>poultry</title><path d="M51.21,192.39c30.68,2.1,57.87-20.73,60.69-51,1.21-13.2-8.09-30.76-28.19-51.95a18.06,18.06,0,0,1-5-11.72l0-5.18c-.11-4.32-4.23-7.83-9.41-8l-.2-21.46a17.1,17.1,0,0,0,7.37-3.46C82.35,34.5,82.16,26.34,76,21.4l0,0a18.29,18.29,0,0,0-21-.49c-6.4-4.76-16.2-4.39-22.06.83s-5.08,13.48,1.17,18.42A17,17,0,0,0,40.45,43l.21,21.72c-4.95.39-8.72,3.88-8.66,8v5.43a17.81,17.81,0,0,1-5.19,12.34C10.4,107.25,1.35,121.81.28,133.9-1.2,148,3.23,162,12.81,173.64A55.34,55.34,0,0,0,51.21,192.39Z" transform="translate(0 -17.53)"/></svg>