<?xml version="1.0" encoding="utf-8"?>
<!-- Generator: Adobe Illustrator 22.0.1, SVG Export Plug-In . SVG Version: 6.00 Build 0)  -->
<svg version="1.1" id="Layer_1" xmlns="http://www.w3.org/2000/svg" xmlns:xlink="http://www.w3.org/1999/xlink" x="0px" y="0px"
	 viewBox="0 0 125 125" style="enable-background:new 0 0 125 125;" xml:space="preserve">
<title>poultry</title>
<path d="M133.2,107.6c-0.7-21.6-15-45.9-34.4-55.9c1.1-1,2-2.1,2.7-3.3c2.7-5.1,15-15.8-9.7-11.8c-4.9-1.2-6.4-14.2-11.8-14.2
	s-4.7,10.9-10.8,14.2c-31-9.8-11.8,9.2-10.8,11.8c0.7,1.2,1.6,2.3,2.7,3.3c-20.4,10.3-34.9,35.6-34.9,57.6c0,2.2,0.5,6.2,0.5,6.6
	c0.5,4,3.2,9.9,3.8,11.4c5.4,10.3,34.9,19.5,51.3,19.8c13,2.4,41.1-9.9,47-19.5c0.2-0.4,0.4-0.8,0.6-1.3l21.8-3.5
	C159.5,120.8,152.8,119.1,133.2,107.6z"/>
</svg>
