<svg id="Layer_1" data-name="Layer 1" xmlns="http://www.w3.org/2000/svg" viewBox="0 0 112.01 210.07"><title>poultry</title><path d="M46.4,124.11c30.68,2.52,57.87-24.89,60.69-61.18C108.3,47.08,99,26,78.9.56a24,24,0,0,1-5-14.07l-.05-6.22a9.85,9.85,0,0,0-9.41-9.63l-.2-25.77a16,16,0,0,0,7.37-4.15,15.48,15.48,0,0,0-.47-21.93,15.85,15.85,0,0,0-21-.59,15.79,15.79,0,0,0-22.06,1C22.16-74.54,23-64.62,29.25-58.69a15.94,15.94,0,0,0,6.39,3.41l.21,26.07a9.56,9.56,0,0,0-8.66,9.63l0,6.52A23.7,23.7,0,0,1,22,1.75C5.59,21.9-3.46,39.38-4.53,53.89A73.06,73.06,0,0,0,8,101.59C17.88,114.93,31.43,123.07,46.4,124.11Z" transform="translate(4.81 85.8)"/></svg>