<svg id="Layer_1" data-name="Layer 1" xmlns="http://www.w3.org/2000/svg" viewBox="0 0 125 125"><title>poultry</title><path d="M133.09,109.82c-.71-21.62-14.83-45.92-34-55.94,2.66-5.14,16.82-18.56-6.91-15.05-4.84-1.25-6.36-14.16-11.67-14.16S75.9,35.57,69.92,38.83c-30.66-9.81-9,12.48-8,15.05C41.75,64.16,27.4,89.5,27.4,111.53c0,2.21.53,6.25.53,6.61.53,4,3.19,9.92,3.72,11.39C37,139.81,66.19,149,82.41,149.35c12.85,2.44,40.63-9.91,46.47-19.46.18-.36,22.85,2,23.52-1.44C152.4,128.45,150.93,118.38,133.09,109.82Z" transform="translate(-27.4 -24.67)"/></svg>