<svg id="Layer_1" data-name="Layer 1" xmlns="http://www.w3.org/2000/svg" viewBox="0 0 125 125"><title>poultry</title><path d="M131.89,107.16c-.72-21.62-15-45.92-34.35-55.94a14.23,14.23,0,0,0,2.68-3.31c2.69-5.14,19.71-15.26-4.29-11.75a13.54,13.54,0,0,0-5.38,0C85.66,34.91,84.12,22,78.75,22S74.05,32.9,68,36.16c-31-9.81-11.83,9.18-10.75,11.75a14.29,14.29,0,0,0,2.69,3.31C39.51,61.5,25,86.84,25,108.87c0,2.21.54,6.25.54,6.61.53,4,3.22,9.92,3.76,11.39,5.37,10.28,34.93,19.46,51.33,19.83,13,2.44,41.09-9.92,47-19.47.18-.36.38-.82.61-1.35L150,122.33S147.83,122.67,131.89,107.16Z" transform="translate(-25 -22.01)"/></svg>