<?xml version="1.0" encoding="utf-8"?>
<!-- Generator: Adobe Illustrator 22.0.1, SVG Export Plug-In . SVG Version: 6.00 Build 0)  -->
<svg version="1.1" id="Layer_1" xmlns="http://www.w3.org/2000/svg" xmlns:xlink="http://www.w3.org/1999/xlink" x="0px" y="0px"
	 viewBox="0 0 100 125" style="enable-background:new 0 0 100 125;" xml:space="preserve">
<title>Chicken Leg</title>
<path d="M86.4,16.9c-9.5-11.2-28-11.2-41.3,0c-5.8,4.9-9.8,15.1-11.7,30.4c-0.3,2.4-1.4,4.6-3.1,6.4l-2.1,2.1
	c-1.7,1.8-1.8,4.6-0.1,6.4l-8.7,8.7c-1.2-0.7-2.5-1.1-3.9-1.1c-4.1,0.1-7.4,3.4-7.3,7.5c0.1,3.8,3.1,7,6.9,7.3
	c0.2,4.1,3.7,7.2,7.8,7.1s7.2-3.7,7.1-7.8c-0.1-1.2-0.4-2.3-1-3.3l8.8-8.8c1.8,1.5,4.5,1.4,6.2-0.3l2.2-2.2c1.8-1.8,4.2-2.9,6.8-3.2
	c12.4-1.2,21.4-4,26.7-8.5c6.2-5.1,10.5-12.3,12-20.2C92.9,29.6,91.1,22.3,86.4,16.9z M25.9,79.3c-0.5,0.6-0.6,1.4-0.1,2
	c1.6,1.9,1.3,4.7-0.6,6.2s-4.7,1.3-6.2-0.6c-0.6-0.8-1-1.8-1-2.8c0-0.3,0-0.6,0.1-0.9c0.2-0.8-0.3-1.6-1.2-1.8c-0.1,0-0.2,0-0.3,0
	c-0.1,0-0.2,0-0.3,0c-0.3,0.1-0.6,0.1-0.9,0.1c-2.4,0-4.4-2-4.4-4.4c0-2.4,2-4.4,4.4-4.4c1.1,0,2.2,0.4,3,1.2c0.6,0.6,1.5,0.6,2.1,0
	l9.6-9.6l5.4,5.4L25.9,79.3z M88.6,36.8c-1.4,7.2-5.2,13.8-10.9,18.4c-4.8,4-13.4,6.7-25.1,7.8c-3.2,0.3-6.3,1.8-8.6,4.1l-2.2,2.2
	c-0.6,0.6-1.7,0.6-2.3,0l-9.2-9.2c-0.6-0.6-0.6-1.7,0-2.3l2.1-2.1c2.2-2.2,3.6-5,4-8.1c1.8-14.3,5.5-24.2,10.6-28.5
	c5.6-4.8,12.7-7.6,20.1-7.7c6.6,0,12.8,2.4,16.9,7.4S89.8,30,88.6,36.8z"/>
</svg>
