<svg id="Layer_1" data-name="Layer 1" xmlns="http://www.w3.org/2000/svg" viewBox="0 0 128.44 125.01"><title>poultry</title><path d="M133.15,107.61c-.72-21.62-15-45.92-34.35-55.94a14,14,0,0,0,2.68-3.31c2.69-5.14,15-15.83-9.67-11.75C86.92,35.36,85.38,22.45,80,22.45s-4.7,10.9-10.75,14.16c-31-9.81-11.83,9.18-10.75,11.75a14.56,14.56,0,0,0,2.69,3.31C40.77,62,26.26,87.29,26.26,109.32c0,2.21.54,6.25.54,6.61.53,4,3.22,9.92,3.76,11.39,5.37,10.28,34.93,19.46,51.33,19.83,13,2.44,41.09-9.92,47-19.47.18-.36.38-.82.61-1.35l21.76-3.55C159.49,120.75,152.77,119.07,133.15,107.61Z" transform="translate(-26.26 -22.45)"/></svg>