<svg id="Layer_1" data-name="Layer 1" xmlns="http://www.w3.org/2000/svg" viewBox="0 0 174.5 175"><title>poultry</title><path d="M174.75,42c0-3.78-4.46-6.92-7.7-4.62-5.26,4-10.73,7.77-16.2,11.33a63.35,63.35,0,0,0-1.42-15.1c-.2-1.26-5.26-2.1-6.68-.84C132.42,42.4,126,84.4,101,74.4c-15.8,1.68-20.5-32-38.4-37a2.84,2.84,0,0,0-.81-.62C49.36,29.26,50.68,21.29,57.9,12.61,57.5,9.47,54.46,8,52,10.09a28.17,28.17,0,0,1-4.25,3.15A59.56,59.56,0,0,0,47,4.85C46.56,1.7,41.7.45,39.68,3c-1.62,2.1-3.45,4.2-5.07,6.09a27.67,27.67,0,0,0-4.05-7.77A4.19,4.19,0,0,0,25.3.66c-3.85,2.09,2.76,13.67,2.16,17.24-1,5.87-9.25,10.65-7,16.74-1.22.63-10.92,11.79-16,13.26C.61,49-1.43,50.58,2,52.68,7.07,55.82,12.13,59,17,62.33c0,1.26.21,2.51.21,3.56,2.43,29,13,61.46,37.46,78.25a67.34,67.34,0,0,0,34,11.32,55.89,55.89,0,0,0-.61,10.07c-5.87.63-11.34,1.89-15.79,4.83a2.14,2.14,0,0,0,.4,3.77c5.07,1.47,10.74.63,16.2.63,6.08,0,12.16,0,18,.21,5.87.42,5.87-9.44,0-9.65-2.84,0-6.28-.21-9.72-.21a38.73,38.73,0,0,0-.61-9.65,68,68,0,0,0,39.08-15.73C163.21,117.08,174.55,76.8,174.75,42Z" transform="translate(-0.25 0)"/></svg>