<svg width="125" height="125" viewBox="0 0 125 125" fill="none" xmlns="http://www.w3.org/2000/svg">
<path d="M124.65 65.9501C122.51 55.4301 110.4 46.7001 102.19 41.8801V41.1001C102.238 38.1004 101.551 35.1346 100.187 32.4621C98.8242 29.7896 96.8268 27.492 94.37 25.7701C94.5898 24.5861 94.7003 23.3843 94.7 22.1801C94.7 12.4101 87.7 4.47008 79.05 4.47008C76.504 4.47464 74.0064 5.16556 71.82 6.47008C69.6835 3.27603 66.3666 1.06067 62.5978 0.310662C58.829 -0.439349 54.9165 0.337329 51.72 2.47008C50.189 3.48795 48.8654 4.78771 47.82 6.30008C46.6432 5.98096 45.4293 5.81955 44.21 5.82008C35.59 5.82008 28.57 13.8201 28.57 23.5401V23.8701C21.65 25.6601 16.46 32.7001 16.46 41.0901C16.4848 42.58 16.6759 44.0626 17.03 45.5101C9.79002 50.5101 2.03002 57.6701 0.320019 65.9101C-0.169095 68.3635 -0.10041 70.8955 0.520996 73.3188C1.1424 75.7421 2.30063 77.9948 3.91002 79.9101C6.46002 83.1701 9.33002 84.8301 12.32 84.8301C15.92 84.8301 19.11 82.3201 21.9 78.4801C20.23 107.78 36.8 124.77 60.64 124.93C87.2 125.12 106.06 108.04 99.69 72.8601C103.16 79.6801 107.49 84.8601 112.69 84.8601C115.69 84.8601 118.51 83.2001 121.1 79.9401C122.703 78.0236 123.854 75.7711 124.469 73.3495C125.083 70.9278 125.145 68.3989 124.65 65.9501Z" fill="black"/>
</svg>
