<svg width="307" height="308" viewBox="0 0 307 308" fill="none" xmlns="http://www.w3.org/2000/svg">
<path d="M143.97 281.595C181.901 288.306 216.914 257.382 222.133 212.56C224.381 192.982 213.78 165.722 190.12 131.686C186.412 126.344 184.575 120.068 184.586 113.596L184.819 105.85C184.83 99.3774 180.031 93.5627 173.607 92.7738L174.574 60.6834C178.092 60.0895 181.265 58.7232 183.914 56.3831C191.496 49.328 191.862 37.1558 184.369 29.0533C177.411 21.5559 166.032 20.1162 158.306 25.863C150.624 17.9277 138.477 17.5255 130.896 24.5806C123.314 31.6356 123.861 44.0786 131.354 52.1811C133.681 54.4343 136.208 56.1516 139.125 57.1656L138.147 89.6248C132.068 89.6081 127.137 94.323 126.948 100.594L126.703 108.708C126.503 115.348 123.921 121.578 119.534 126.529C98.2043 149.677 86.1592 170.369 84.1451 188.304C81.4966 208.955 86.185 230.665 97.4195 249.106C109.044 266.844 125.455 278.56 143.97 281.595Z" fill="black"/>
</svg>
