<svg width="228" height="230" viewBox="0 0 228 230" fill="none" xmlns="http://www.w3.org/2000/svg">
<path d="M227.732 88.078C227.019 87.0059 213.466 64.8475 181.009 64.8475C177.442 64.8475 173.876 65.2048 170.666 65.9196L170.309 65.2048L169.596 64.1327C177.442 54.8404 181.722 42.689 181.722 30.5376V12.668C181.722 10.5236 181.366 8.37924 180.296 6.59227C177.086 0.873974 169.952 -1.27039 164.246 1.94616C161.392 3.37573 159.609 5.87749 158.539 9.09403L156.756 15.8845C154.616 23.3898 150.692 30.1803 145.342 35.5412L141.776 39.1151C124.299 30.5377 103.612 30.5377 86.1353 39.1151L82.5686 35.5412C77.2186 30.1803 73.2953 23.3898 71.1553 15.8845L69.3719 9.09403C68.3019 4.80531 65.0919 1.58876 60.8119 0.51658C57.2452 -0.198207 53.6785 0.51658 50.8252 2.66094C47.9718 5.1627 46.1885 8.73664 46.1885 12.3106V30.5376C46.1885 42.689 50.4685 54.8404 58.3152 64.1327L57.9585 64.8475L57.6019 65.5622C54.0352 64.8475 50.8252 64.4901 47.2585 64.4901C14.8017 64.4901 1.24834 86.6485 0.535002 87.7206C-0.178334 88.7928 -0.178334 90.2224 0.535002 91.2946C1.24834 92.3668 14.8017 114.525 47.2585 114.525C48.6852 114.525 50.4685 114.168 51.8952 114.168L63.6652 178.499C57.2452 184.217 53.3219 192.08 53.3219 200.657C53.3219 216.382 66.1619 229.249 81.8553 229.249H96.122C102.542 229.249 108.962 227.104 113.955 222.815C118.949 226.747 125.369 229.249 131.789 229.249H146.056C154.259 229.249 162.106 225.675 167.812 219.242C178.156 207.09 176.729 189.22 164.602 178.856L176.372 114.525C177.799 114.883 179.226 114.883 181.009 114.883C213.466 114.883 227.019 92.7242 227.732 91.652C228.089 90.5798 228.089 89.1502 227.732 88.078ZM167.456 200.657C167.456 212.451 157.826 222.101 146.056 222.101H131.789C126.082 222.101 120.375 219.956 116.452 215.668C115.025 214.238 112.885 214.238 111.459 215.668C107.535 219.956 101.829 222.101 96.122 222.101H81.8553C70.0853 222.101 60.4552 212.451 60.4552 200.657C60.4552 188.863 70.0853 179.213 81.8553 179.213H96.122C101.829 179.213 107.535 181.358 111.459 185.647C112.885 187.076 115.025 187.076 116.452 185.647C120.375 181.358 126.082 179.213 131.789 179.213H146.056C157.826 179.213 167.456 188.863 167.456 200.657ZM181.009 107.735C180.296 107.735 179.939 107.735 179.226 107.735C176.372 107.735 173.519 108.092 170.309 108.092V108.449L157.826 174.567C154.259 172.78 149.979 172.066 146.056 172.066H131.789C125.369 172.066 118.949 174.21 113.955 178.499C108.962 174.567 102.542 172.066 96.122 172.066H81.8553C77.5753 172.066 73.6519 173.138 70.0853 174.925L57.6019 108.807C57.6019 108.449 57.6019 107.735 57.2452 107.377C53.3219 107.735 48.3285 108.449 44.0485 107.735C29.7818 107.377 16.5851 100.944 7.66836 89.865C17.2984 78.071 31.5651 71.2805 46.9018 71.9953C49.0418 71.9953 51.5385 72.3527 53.6785 72.3527H54.0352C54.0352 72.3527 54.0352 72.3527 54.3919 72.3527C56.5319 72.3527 59.0285 72.7101 61.1686 73.7823C61.8819 71.9953 62.5952 70.2084 63.6652 68.4214C64.3786 67.3492 64.7352 66.277 65.4486 65.2048C66.5186 63.7753 66.1619 61.9883 65.0919 60.9161C57.2452 52.6961 52.9652 41.6169 52.9652 29.8229V11.9532C52.9652 10.5236 53.6785 9.09403 54.7485 8.37924C56.1752 7.66445 57.6019 7.30706 59.0285 7.66445C60.8119 8.02185 61.8819 9.45142 62.2386 11.2384L64.0219 18.0289C66.5186 26.6063 71.1553 34.469 77.2186 40.5447L82.5686 45.9056C83.6386 46.9778 85.422 47.3352 86.8486 46.6204C103.612 37.6855 123.942 37.6855 140.706 46.6204C142.132 47.3352 143.916 46.9778 144.986 45.9056L150.336 40.5447C156.756 34.1116 161.036 26.6063 163.532 18.0289L165.672 11.2384C166.029 10.1662 166.742 9.09403 167.812 8.37924C168.882 7.66445 170.309 7.66445 171.379 8.02185C173.519 8.37924 174.589 10.5236 174.589 12.3106V30.1803C174.589 41.6169 170.309 52.6961 162.462 60.9161C161.392 61.9883 161.036 64.1327 162.106 65.2048C162.819 66.277 163.532 67.3492 163.889 68.064C164.602 69.4936 165.316 70.9231 166.029 71.9953C168.526 71.6379 170.666 71.6379 173.162 71.6379C173.519 71.6379 174.232 71.6379 174.589 71.6379C174.946 71.6379 174.946 71.6379 175.302 71.6379C177.086 71.2805 178.869 71.2805 180.652 71.2805C195.989 70.5657 210.256 77.3562 219.886 89.1502C210.612 101.659 195.989 108.449 181.009 107.735Z" fill="black"/>
</svg>
