<svg width="147" height="274" viewBox="0 0 147 274" fill="none" xmlns="http://www.w3.org/2000/svg">
<path d="M22.6948 239.31C11.9638 222.493 7.08825 202.362 9.70574 182.613C11.6733 165.734 23.5677 144.297 44.5714 120.206C50.3175 113.619 53.6181 104.853 53.8426 96.0095L54.0573 87.5504C54.1159 85.2433 63.4203 74.8988 65.7273 74.9573L76.109 75.2209L86.4907 75.4844L91.5675 79.5C93.8746 79.5586 98.3343 86.3659 98.2757 88.6729L98.0708 96.7476C97.856 105.207 100.343 113.35 105.363 120.21C128.609 151.773 139.865 178.222 137.868 196.255C135.822 216.211 127.072 235.034 112.671 249.097C99.6606 261.463 82.9413 268.349 65.4901 266.175C48.039 264 33.0705 254.963 22.6948 239.31Z" fill="black"/>
<path d="M66.6643 36.598C66.5257 34.4784 65.2239 32.7139 63.114 32.468C56.3997 31.7204 51.7447 25.6385 52.6796 19.1214C53.6146 12.6043 59.5091 7.75212 66.0262 8.68708C68.708 9.13991 71.3703 10.3618 73.244 12.3331C73.8061 12.9245 74.3682 13.5159 74.7332 14.2947C75.8379 16.2465 78.3226 16.8867 80.4715 15.5946L81.0629 15.0325L81.6543 14.4704C82.0584 13.7111 82.6498 13.149 83.2412 12.5869C87.9724 8.08995 95.6626 8.28518 100.16 13.0164C104.656 17.7476 104.461 25.4378 99.73 29.9347C97.5616 31.9958 94.6436 33.2684 91.5675 33.1903C89.2605 33.1317 87.4863 34.8181 87.4277 37.1252L86.4907 75.4844L76.109 75.2209L65.7273 74.9573L66.6643 36.598Z" fill="black"/>
</svg>
