<svg width="322" height="323" viewBox="0 0 322 323" fill="none" xmlns="http://www.w3.org/2000/svg">
<path d="M151.319 294.971C191.033 299.249 227.502 264.585 232.735 217.586C234.988 197.058 223.761 169.456 198.839 135.734C194.933 130.441 192.979 124.043 192.958 117.309L193.163 109.234C193.142 102.5 188.092 96.7933 181.368 96.4302L182.217 62.9781C185.895 62.1095 189.207 60.4622 191.967 57.839C199.862 49.9596 200.184 37.2708 192.305 29.3757C184.987 22.0719 173.077 21.3848 165.024 27.9136C156.948 20.2059 144.239 20.6528 136.344 28.5322C128.449 36.4116 129.083 49.317 136.963 57.2122C139.408 59.3904 142.061 60.9968 145.117 61.8439L144.258 95.6805C137.899 96.0962 132.764 101.352 132.598 107.889L132.383 116.348C132.208 123.269 129.538 129.935 124.974 135.398C102.778 160.998 90.2824 183.381 88.2661 202.183C85.5998 223.854 90.6139 246.105 102.459 264.489C114.709 282.114 131.936 293.132 151.319 294.971ZM153.664 58.598C153.526 56.4784 152.224 54.7139 150.114 54.468C143.4 53.7204 138.745 47.6385 139.68 41.1214C140.615 34.6043 146.509 29.7521 153.026 30.6871C155.708 31.1399 158.37 32.3618 160.244 34.3331C160.806 34.9245 161.368 35.5159 161.733 36.2947C162.838 38.2465 165.323 38.8867 167.472 37.5946C167.669 37.4073 167.866 37.2199 168.063 37.0325C168.26 36.8451 168.457 36.6578 168.654 36.4704C169.059 35.7111 169.65 35.149 170.241 34.5869C174.973 30.0899 182.663 30.2852 187.16 35.0164C191.657 39.7476 191.461 47.4378 186.73 51.9347C184.562 53.9958 181.644 55.2684 178.568 55.1903C176.261 55.1317 174.486 56.8181 174.428 59.1252L173.491 96.0379L152.727 95.5108L153.664 58.598ZM109.695 259.863C98.9638 243.046 94.0882 222.915 96.7057 203.167C98.6733 186.287 110.568 164.851 131.571 140.76C137.318 134.172 140.618 125.407 140.843 116.563L141.057 108.104C141.116 105.797 143.284 103.736 145.591 103.794L180.966 104.692C183.273 104.751 185.334 106.919 185.276 109.226L185.071 117.301C184.856 125.76 187.343 133.903 192.363 140.764C215.609 172.327 226.865 198.776 224.868 216.809C222.822 236.764 214.072 255.587 199.671 269.65C186.661 282.017 169.941 288.903 152.49 286.728C135.039 284.554 120.071 275.517 109.695 259.863Z" fill="black"/>
<path d="M109.695 259.863C98.9638 243.046 94.0882 222.915 96.7057 203.167C98.6733 186.287 110.568 164.851 131.571 140.76C137.318 134.172 140.618 125.407 140.843 116.563L141.057 108.104C141.116 105.797 143.284 103.736 145.591 103.794L180.966 104.692C183.273 104.751 185.334 106.919 185.276 109.226L185.071 117.301C184.856 125.76 187.343 133.903 192.363 140.764C215.609 172.327 226.865 198.776 224.868 216.809C222.822 236.764 214.072 255.587 199.671 269.65C186.661 282.017 169.941 288.903 152.49 286.728C135.039 284.554 120.071 275.517 109.695 259.863Z" fill="black"/>
<path d="M153.664 58.598C153.526 56.4784 152.224 54.7139 150.114 54.468C143.4 53.7204 138.745 47.6385 139.68 41.1214C140.615 34.6043 146.509 29.7521 153.026 30.6871C155.708 31.1399 158.37 32.3618 160.244 34.3331C160.806 34.9245 161.368 35.5159 161.733 36.2947C162.838 38.2465 165.323 38.8867 167.472 37.5946L168.063 37.0325L168.654 36.4704C169.059 35.7111 169.65 35.149 170.241 34.5869C174.973 30.0899 182.663 30.2852 187.16 35.0164C191.657 39.7476 191.461 47.4378 186.73 51.9347C184.562 53.9958 181.644 55.2684 178.568 55.1903C176.261 55.1317 174.486 56.8181 174.428 59.1252L173.491 96.0379L152.727 95.5108L153.664 58.598Z" fill="black"/>
</svg>
